<svg t="1681031661435" class="icon" viewBox="0 0 1024 1024" version="1.1" xmlns="http://www.w3.org/2000/svg" p-id="7176" width="200" height="200"><path d="M934.936071 448.197136h-207.511483l-39.1505-192.017293h116.317104a31.901432 31.901432 0 0 0 32.288786-31.818427 31.901432 31.901432 0 0 0-32.288786-31.818428H675.242367l-28.664253-140.665117a64.992597 64.992597 0 0 0-63.636855-51.352175h-142.380546c-30.794704 0-57.909538 21.581194-63.636855 51.352175L348.287274 192.570657H219.436477a31.9291 31.9291 0 0 0-32.371792 31.818427c0 17.984329 14.636477 31.818427 32.371792 31.818427h116.317103L296.60308 448.224804H89.063929a31.9291 31.9291 0 0 0-32.316455 31.486409v0.276682c0 17.513969 14.553472 31.873764 32.261118 31.873764h194.562767L187.618049 986.205242v9.766874c0 2.047447 0.553364 3.596866 1.023723 5.644312 0.553364 2.047447 1.577087 3.596866 2.628479 5.644312a18.42702 18.42702 0 0 0 3.624534 5.118617c0.553364 1.023723 1.106728 2.047447 2.075115 2.573142 0.553364 0.498028 1.604755 1.023723 2.102783 1.521751 1.577087 1.023723 3.154175 2.047447 5.229289 3.126507 2.075115 1.023723 4.15023 2.047447 6.253013 2.517806 1.07906 0 1.577087 1.023723 2.600811 1.023723h3.154174c1.023723 0 2.047447 0.553364 3.126507 0.553364 1.051392 0 2.075115-0.553364 3.652202-0.553364a25.869765 25.869765 0 0 0 12.007998-3.541529 18.759038 18.759038 0 0 0 5.201621-3.596866c1.051392-1.051392 2.075115-1.051392 3.126506-2.075115l269.12856-279.25512 269.073223 279.25512c0.553364 0.498028 1.023723 0.498028 1.577088 1.023723a22.41124 22.41124 0 0 0 7.276736 4.648258c1.051392 0.470359 2.075115 1.494083 3.154174 1.494082 3.790543 1.660092 7.857768 2.517806 12.007998 2.600811 2.075115 0 4.15023 0 5.699649-0.553364 1.051392 0 1.577087-1.023723 2.60081-1.023723 2.075115-0.470359 4.15023-1.494083 6.253013-2.517806l4.703594-3.126507c1.051392-0.498028 1.604755-1.023723 2.628479-1.521751 1.023723-1.023723 1.023723-2.047447 2.075114-2.573142a18.42702 18.42702 0 0 0 3.652202-5.118617c1.051392-2.047447 2.047447-3.596866 2.600811-5.644312 0.553364-2.047447 1.07906-3.596866 1.07906-5.644312v-9.766874l-96.479006-473.845555h194.507431a31.901432 31.901432 0 0 0 32.316455-31.541746v-0.276682c0-17.430965-14.083113-32.371791-32.288787-32.371791h-0.055337zM441.612105 63.636855h141.384491l26.063442 128.352769h-193.539044l26.063443-128.352769h0.055336zM402.54461 256.207511h219.049121l39.122832 192.044961H363.366442l39.122831-192.044961h0.027668z m235.179681 256.179844L512 642.234207l-125.668954-129.87452H637.696623zM273.168117 890.224264l67.787084-332.129046 126.249987 130.925911-194.037071 201.203135z m409.932018-332.129046l67.814753 332.129046-194.009403-201.203135 126.19465-130.925911z" fill="#38BFD4" p-id="7177"></path></svg>
