<svg t="1681031441883" class="icon" viewBox="0 0 1024 1024" version="1.1" xmlns="http://www.w3.org/2000/svg" p-id="5558"
     width="200" height="200">
  <path
    d="M501.4528 819.2h419.84v-25.088h-419.84V819.2z m-222.3104 0h197.632v-75.3664h-197.632V819.2z m-74.0864 0h49.408v-25.088h-49.408V819.2zM476.7744 254.0544H402.6368l-3.4304 29.6448H479.744l-2.9696-29.6448z m4.7616 52.992h-84.48l-2.1504 24.3712H483.328l-1.8432-24.3712z m3.6352 47.7696H392.8064l-13.312 147.6096 72.2944-34.9696v119.3984l49.3568-23.8592-15.9744-208.1792z m164.4544-176.128h74.1376V153.6h-74.1376v25.088z m77.824 20.8896h-81.92l-1.536 24.4224h84.7872l-1.3824-24.4224z m2.7136 47.7696h-87.7056l-16.4864 255.3344 72.8064-35.2256v119.3984l49.5104-23.9104-18.1248-315.5968z m-55.552 377.344V505.2928l-246.9888 119.3984V505.2928L204.8 613.0176l0.256 155.9552h49.408v-50.2272h246.9888v50.176h419.8912L921.6 505.344l-246.9888 119.3984z m172.6464 119.1424h24.6784v-62.7712h-24.6784v62.7712z m-74.1376 0h24.7296v-62.7712H773.12v62.7712z m-74.0864 0h24.7296v-62.7712h-24.7296v62.7712z m-74.0864 0h24.6784v-62.7712h-24.6784v62.7712z m-74.0864 0h24.6784v-62.7712h-24.6784v62.7712z m-296.3968-50.176h246.9888v-25.1392H254.464v25.088z"
    fill="#F25F07" p-id="5559"></path>
</svg>
