<svg t="1681031934221" class="icon" viewBox="0 0 1024 1024" version="1.1" xmlns="http://www.w3.org/2000/svg" p-id="7630"
     width="200" height="200">
  <path d="M516.5 530.6m-428.9 0a428.9 428.9 0 1 0 857.8 0 428.9 428.9 0 1 0-857.8 0Z" fill="#E61211"
        p-id="7631"></path>
  <path d="M516.5 530.6m-393.7 0a393.7 393.7 0 1 0 787.4 0 393.7 393.7 0 1 0-787.4 0Z" fill="#FFFFFF"
        p-id="7632"></path>
  <path
    d="M834.9 490.1c-12.8-26.3-34.8-46.4-60-54.9-7.6-2.6-15.6-4.1-23.7-4.4 18-22.5 25.3-54.9 18.4-87.7-6.1-28.8-22.5-53.7-45-68.2-18-11.6-38.6-15.9-58.2-11.6l-244.6 39.8c-29.6 0.4-57.4 14.3-78.4 39.1-21 24.9-32.7 57.9-33 93.1-0.3 18.4 2.8 36.8 9 54.1l-50.2 16.4c-60 10.2-100.4 76-90.2 147.9 5.6 39.1 25.3 73.9 53.9 95.3 18.9 14.1 40.7 21.5 62.5 21.5 4.6 0 9.1-0.4 13.7-1.1 14.1-2.1 27.8-7.3 39.7-15.2l68.5-43.1c11.2 30.8 31.6 56.6 57.5 72.3 16.5 10.2 35.4 15.7 54.9 15.9 7.8 0 15.5-0.9 23-2.8 13.9-3.4 26.8-9.9 37.9-18.9l231-174.3 0.9-0.7 0.8-0.8c26.1-27.2 30.7-72.3 11.6-111.7z m-505.2 23.8l1.2 1.6c-0.8-0.4-1.6-0.8-2.5-1.2l1.3-0.4zM328 715.8l-0.5 0.4c-7.4 5-15.7 8.2-24.5 9.5-16.3 2.4-32.5-2.1-47.1-13-19.3-14.4-32.5-38.1-36.2-64.8-6.9-48.7 19.3-92.8 58.4-98.5 2.8-0.4 5.7-0.7 8.5-0.7 13.4 0 26.6 4.6 38.6 13.6 19.3 14.4 32.5 38.1 36.2 64.8 5.2 37.3-9 71.9-33.4 88.7z m119.9-195.5c-14.9 6.3-31.6 6.7-46.9 1.3-0.8-0.3-1.3-0.4-2-0.7-3.8-1.7-7.5-3.7-11-6.1-6.9-5.8-13.2-12.2-19-18.9-11.4-16-18.2-37.2-18-60.3 0.3-24.3 8.2-46.9 22.5-63.9 13.5-16.1 31.2-24.9 49.8-24.9h0.7c39.7 0.4 71.5 40.9 71 90.3-0.3 24.3-8.2 46.9-22.5 63.9-6.6 7.9-14.8 14.4-24.1 18.9l-0.5 0.4z m113.2 225.1l-0.5 0.4c-7.4 5-15.7 8.2-24.5 9.5-16.3 2.4-32.5-2.1-47.1-13-19.3-14.4-32.5-38.1-36.2-64.8-6.9-48.7 19.3-92.8 58.4-98.5 2.8-0.4 5.7-0.7 8.5-0.7 13.4 0 26.6 4.6 38.6 13.6 19.3 14.4 32.4 38.1 36.2 64.8 5.2 37.3-9 71.9-33.4 88.7z m0 0"
    fill="#E61211" p-id="7633"></path>
</svg>
